<?xml version="1.0" encoding="UTF-8"?>
<svg version="1.1" xmlns="http://www.w3.org/2000/svg" width="512" height="512">
<path d="M0 0 C0.7824559 -0.00701431 1.5649118 -0.01402863 2.37107849 -0.02125549 C4.88806956 -0.03869985 7.40482567 -0.04510936 9.921875 -0.046875 C10.77979645 -0.04754974 11.6377179 -0.04822449 12.52163696 -0.04891968 C24.82740046 -0.03350344 36.65795107 0.31614612 48.671875 3.203125 C49.79819336 3.45255859 49.79819336 3.45255859 50.94726562 3.70703125 C93.15328155 13.11712563 129.8740848 37.69546994 155.671875 72.203125 C156.3215625 73.069375 156.97125 73.935625 157.640625 74.828125 C185.25536884 112.98668012 196.01904164 161.01745935 189.08203125 207.45922852 C183.41501011 241.68588578 168.86299385 274.63414256 144.83203125 299.921875 C143.02289933 301.832423 141.37300945 303.77399634 139.734375 305.828125 C135.66914968 310.62623601 130.57950515 314.31482381 125.671875 318.203125 C124.88941406 318.863125 124.10695313 319.523125 123.30078125 320.203125 C100.75542062 339.06062731 72.61736905 350.81789627 43.984375 356.390625 C43.12956543 356.55771973 42.27475586 356.72481445 41.39404297 356.89697266 C-2.14855391 365.00432866 -50.40237102 355.28053811 -87.2734375 330.625 C-90.70368645 328.24888526 -94.02356848 325.75091285 -97.328125 323.203125 C-98.66230469 322.18605469 -98.66230469 322.18605469 -100.0234375 321.1484375 C-109.21736693 313.97198475 -117.96894548 306.274818 -125.328125 297.203125 C-126.15957031 296.19765625 -126.99101562 295.1921875 -127.84765625 294.15625 C-154.38806264 261.59185429 -168.81339072 221.88502867 -168.703125 179.828125 C-168.70258118 179.04276367 -168.70203735 178.25740234 -168.70147705 177.44824219 C-168.57764168 138.34400421 -156.06685656 99.80683214 -131.328125 69.203125 C-130.65652344 68.32914062 -129.98492187 67.45515625 -129.29296875 66.5546875 C-101.14703269 30.67519518 -60.04207472 8.39727164 -15.328125 1.203125 C-14.25578613 1.0273291 -13.18344727 0.8515332 -12.07861328 0.67041016 C-8.03959538 0.16717619 -4.06314084 0.02430751 0 0 Z M-21.328125 22.203125 C-21.10672852 22.70537598 -20.88533203 23.20762695 -20.65722656 23.72509766 C-4.35708595 60.93046543 -4.35708595 60.93046543 -10.2265625 78.59375 C-16.37405237 93.15588912 -27.2724351 102.55912428 -41.640625 108.515625 C-46.63700506 110.47288463 -51.31982339 111.30816969 -56.6796875 111.44921875 C-57.69675781 111.48208984 -58.71382813 111.51496094 -59.76171875 111.54882812 C-61.865795 111.60934929 -63.96996475 111.66671413 -66.07421875 111.72070312 C-72.98945018 111.95121084 -79.55893188 112.76863287 -86.328125 114.203125 C-86.328125 114.863125 -86.328125 115.523125 -86.328125 116.203125 C-76.12094426 120.68142133 -65.90937737 124.75120235 -55.328125 128.265625 C-41.02297918 133.09192409 -30.68561172 139.2944538 -22.390625 152.203125 C-16.97087656 160.56293003 -11.05824814 166.29496848 -1.16015625 168.73828125 C4.3116927 169.6576947 8.38967041 168.86062459 13.671875 167.203125 C21.18143906 164.85485741 27.34246568 164.32492385 34.546875 167.828125 C39.56608518 171.64272473 41.70931208 175.95554681 42.671875 182.203125 C43.71331952 198.24537609 40.19478866 212.89754749 29.609375 225.328125 C25.06411031 230.11261414 19.98545895 234.07246066 14.6875 237.9765625 C10.15523545 241.32292363 6.39552565 244.18301217 3.234375 248.890625 C2.63625 249.7671875 2.038125 250.64375 1.421875 251.546875 C0.31863839 253.22143057 -0.76730022 254.90763526 -1.828125 256.609375 C-7.49916188 265.60906396 -14.74942569 272.18562298 -25.16015625 274.95703125 C-36.86052824 277.25093895 -49.90017088 276.3586552 -60.328125 270.203125 C-61.08480469 269.77 -61.84148437 269.336875 -62.62109375 268.890625 C-78.50613104 259.09884322 -84.67365856 242.42099942 -89.11328125 225.1484375 C-90.38522051 218.64741462 -90.52189333 212.11599081 -90.765625 205.515625 C-91.4016915 189.12478723 -92.51908008 171.03451283 -105.265625 159.015625 C-112.52952074 153.55394582 -119.12761644 152.91193416 -127.95751953 152.54760742 C-132.89239988 152.33741606 -137.53374261 151.77273631 -142.34765625 150.60546875 C-144.64462516 150.07039905 -144.64462516 150.07039905 -148.328125 150.203125 C-150.10809791 159.77850305 -150.69466181 169.10092052 -150.640625 178.828125 C-150.63846985 179.52933472 -150.6363147 180.23054443 -150.63409424 180.95300293 C-150.44147956 220.12837951 -136.21031749 258.23974619 -109.34765625 287.03125 C-107.57728362 288.93517105 -105.91426732 290.88203651 -104.265625 292.890625 C-100.96019516 296.75294791 -97.25688876 299.98750318 -93.328125 303.203125 C-91.93980469 304.3478125 -91.93980469 304.3478125 -90.5234375 305.515625 C-77.77093993 315.79655062 -60.64050371 327.94064926 -44.328125 331.203125 C-44.12058594 330.25953125 -43.91304688 329.3159375 -43.69921875 328.34375 C-39.79737537 311.69719205 -31.89311445 299.51013407 -17.328125 290.203125 C-5.1094235 283.45649844 9.1980382 280.6813822 22.921875 284.328125 C34.17025135 288.29922667 42.44107136 294.96235204 47.68603516 305.75048828 C49.68808183 310.7313107 50.74871555 315.97777705 51.921875 321.203125 C52.19 322.35941406 52.458125 323.51570313 52.734375 324.70703125 C53.38927001 327.53711326 54.03483101 330.36898138 54.671875 333.203125 C58.96884874 334.54197772 61.86576393 333.36888512 65.921875 331.765625 C66.62570312 331.49266602 67.32953125 331.21970703 68.0546875 330.93847656 C84.84953969 324.26685601 100.83911951 315.44377885 114.671875 303.765625 C115.27789551 303.25741211 115.88391602 302.74919922 116.50830078 302.22558594 C117.96040357 300.95462306 119.32533405 299.58543344 120.671875 298.203125 C120.671875 294.42389842 119.47112174 293.10448764 117.421875 289.953125 C108.22612314 274.34086474 107.43866169 255.93795097 111.27734375 238.484375 C112.30353577 232.55074985 111.27630306 226.87783366 108.01171875 221.8125 C104.64410947 217.76744162 100.10485206 215.1318007 95.73046875 212.296875 C82.72589792 203.83332452 73.1471119 193.47158031 68.671875 178.203125 C65.90928097 162.19575392 66.28747607 143.9846165 75.671875 130.203125 C76.27 129.295625 76.868125 128.388125 77.484375 127.453125 C83.73982072 121.01895226 90.78329405 118.5973654 99.546875 117.890625 C107.20629084 118.11458453 114.52144598 121.43192624 121.54296875 124.23828125 C131.11027619 127.18849965 140.40479061 127.46229773 150.359375 127.328125 C151.64521484 127.31910156 152.93105469 127.31007813 154.25585938 127.30078125 C157.39473232 127.2774439 160.53319976 127.24470533 163.671875 127.203125 C161.80886026 120.28622614 159.40913409 113.96473649 156.171875 107.578125 C155.51711182 106.28334229 155.51711182 106.28334229 154.84912109 104.96240234 C145.92829048 87.73958209 133.73560066 72.52230048 119.671875 59.203125 C115.51443885 62.51017648 111.90557733 66.00242265 108.39428711 69.97265625 C100.34701601 79.04519602 92.44838086 85.33732224 79.91015625 86.57421875 C67.45109275 86.78496908 57.71806974 84.3171364 48.453125 75.37109375 C44.24764253 70.2525789 43.06274402 64.11143731 43.32421875 57.5859375 C45.00243208 46.08357645 51.6231349 37.11248939 59.3515625 28.83203125 C60.88176848 27.29363986 60.88176848 27.29363986 60.671875 25.203125 C57.79949466 24.40081834 54.92447404 23.61132474 52.046875 22.828125 C50.86351562 22.49554688 50.86351562 22.49554688 49.65625 22.15625 C37.45534546 18.86394243 25.37738971 17.86938471 12.8034668 17.94238281 C10.60763062 17.95313354 8.41260902 17.94239842 6.21679688 17.9296875 C-8.63566078 17.12125155 -8.63566078 17.12125155 -21.328125 22.203125 Z M-107.9453125 69.8125 C-121.43792305 84.03793604 -143.328125 111.37447555 -143.328125 132.203125 C-137.05429652 134.70950371 -131.19368722 135.43064505 -124.515625 135.640625 C-110.45999427 136.17020264 -99.06267076 140.04404578 -89.140625 150.265625 C-77.62681766 163.97689855 -74.54588168 182.75132337 -74.03808594 200.10571289 C-73.49749203 217.82569763 -71.2645554 236.89016648 -58.328125 250.203125 C-52.52727011 255.60064847 -46.37939552 258.9829243 -38.37109375 259.33203125 C-31.58724881 259.05043769 -26.41759335 257.82155904 -21.328125 253.203125 C-19.07648218 250.68888364 -17.20176855 248.00629042 -15.328125 245.203125 C-14.12229203 243.47221378 -12.91389188 241.74308857 -11.703125 240.015625 C-11.15398437 239.21769531 -10.60484375 238.41976562 -10.0390625 237.59765625 C-6.61770377 232.8093163 -3.38492302 229.27756296 1.421875 225.828125 C12.27709116 217.83858026 21.40126148 210.20427958 25.359375 196.890625 C25.85042781 192.66757086 25.74607972 188.44928376 25.671875 184.203125 C21.85371606 182.78761242 19.15577752 183.6787939 15.296875 184.703125 C1.95052985 187.71055688 -10.37315054 185.66799839 -22.015625 178.515625 C-28.59966915 173.83285563 -33.35710909 167.73407177 -37.828125 161.078125 C-44.5898118 151.34972929 -52.10193945 147.69913984 -63.05712891 143.97558594 C-102.07825453 130.70286593 -102.07825453 130.70286593 -108.328125 118.203125 C-108.70994145 112.47587822 -108.42572558 109.22752681 -105.328125 104.203125 C-93.19992167 94.97120904 -76.48694149 94.80007376 -61.92871094 94.7565918 C-50.78313116 94.56848466 -41.98113595 90.60607173 -33.765625 83.078125 C-29.31826194 78.4227561 -25.81335295 73.26610041 -25.03515625 66.75 C-25.61908297 52.64925094 -32.71235396 38.37770958 -39.328125 26.203125 C-63.265132 26.203125 -92.05548916 53.97010897 -107.9453125 69.8125 Z M71.40625 41.3984375 C66.56482613 46.36435513 62.97834055 51.64678311 60.671875 58.203125 C60.59162842 60.80202283 60.59162842 60.80202283 61.671875 63.203125 C65.83894713 67.14494999 69.64624471 69.48615636 75.421875 69.578125 C76.22109375 69.60648438 77.0203125 69.63484375 77.84375 69.6640625 C86.15448333 68.30955071 91.18872473 63.14447835 96.609375 57.078125 C97.28033203 56.34980469 97.95128906 55.62148438 98.64257812 54.87109375 C102.03367796 51.30385006 102.03367796 51.30385006 104.671875 47.203125 C101.75684815 45.40877995 98.83957255 43.6181235 95.921875 41.828125 C95.096875 41.32023437 94.271875 40.81234375 93.421875 40.2890625 C92.62265625 39.79921875 91.8234375 39.309375 91 38.8046875 C90.2668457 38.35432129 89.53369141 37.90395508 88.77832031 37.43994141 C80.60302501 32.63975063 77.97131157 35.17770115 71.40625 41.3984375 Z M90.671875 139.203125 C84.12942136 148.97497391 83.26047792 160.57924964 85.1328125 172.01953125 C88.62563735 185.14844348 97.84853422 193.47252843 109.234375 200.140625 C118.74792249 205.84208512 124.5346123 212.49743759 127.671875 223.203125 C129.34717443 230.28405724 129.16566065 237.35499461 127.671875 244.453125 C125.40890691 255.9647453 125.7993877 267.40545252 130.671875 278.203125 C132.70274101 280.99868171 132.70274101 280.99868171 134.671875 283.203125 C139.57663471 277.87824188 143.7799782 272.40635001 147.609375 266.265625 C148.12516113 265.44006104 148.64094727 264.61449707 149.17236328 263.76391602 C170.64206263 228.76100892 177.92929828 186.48981285 169.671875 146.203125 C169.176875 145.213125 169.176875 145.213125 168.671875 144.203125 C167.26047241 144.22669067 167.26047241 144.22669067 165.82055664 144.25073242 C144.33470583 144.56242653 125.16886984 144.74490785 104.96484375 136.41015625 C99.3032952 134.33492671 95.13714399 135.28727389 90.671875 139.203125 Z M-17.328125 312.203125 C-22.72833717 318.90379643 -26.56296808 326.53598388 -27.328125 335.203125 C-24.57409288 337.95715712 -21.59243129 338.12302972 -17.890625 338.765625 C-17.16270752 338.89493408 -16.43479004 339.02424316 -15.68481445 339.1574707 C2.1449515 342.23850157 19.81303084 341.76418844 37.671875 339.203125 C37.06065738 335.85751278 36.37411319 332.53077645 35.671875 329.203125 C35.47851562 328.25518066 35.47851562 328.25518066 35.28125 327.28808594 C32.56830225 313.94210392 32.56830225 313.94210392 23.87109375 303.87890625 C9.65554592 295.20346486 -5.89140132 302.34141178 -17.328125 312.203125 Z " fill="#000000" transform="translate(266.328125,-0.203125)"/>
<path d="M0 0 C1.80885315 1.32752991 1.80885315 1.32752991 3.73657227 3.08227539 C4.44000763 3.71980743 5.14344299 4.35733948 5.86819458 5.01419067 C11.2601693 10.03689752 16.54530469 15.16030524 21.79321289 20.33325195 C23.22824493 21.74148845 24.67039177 23.14250957 26.11938477 24.53637695 C28.23082231 26.56872195 30.31837488 28.6231365 32.40234375 30.68359375 C33.05017319 31.29843124 33.69800262 31.91326874 34.36546326 32.54673767 C37.41034061 35.60543276 39.34477961 37.90053541 40.03344727 42.23852539 C40.00148184 45.83335263 39.98320387 46.72831006 38.0625 49.5 C34.95937859 52.03316034 33.15727231 52.95744551 29.1171875 52.66015625 C25.68525908 51.59005311 23.48260981 49.4102345 20.95703125 46.921875 C18.76356446 44.7678118 16.4218314 42.89061795 14 41 C-4.22537844 65.11954339 -16.30756741 92.30393941 -22.8125 121.8125 C-23.00730957 122.69365479 -23.20211914 123.57480957 -23.40283203 124.48266602 C-26.51840882 139.44704212 -27.4090608 154.13726429 -27.375 169.375 C-27.37445618 170.29453461 -27.37391235 171.21406921 -27.37335205 172.16146851 C-27.31153944 194.97501995 -24.20716092 216.29157372 -17 238 C-16.76555176 238.70769531 -16.53110352 239.41539062 -16.28955078 240.14453125 C-8.42912577 263.35414188 3.37629644 285.11559725 19 304 C19.47050781 304.57202148 19.94101563 305.14404297 20.42578125 305.73339844 C31.12390834 318.66853495 42.57462531 329.90815021 56 340 C57.39025391 341.06541016 57.39025391 341.06541016 58.80859375 342.15234375 C103.83050075 375.93549833 161.80026582 388.66657853 217.1965332 381.41015625 C249.50819323 376.714471 278.4752059 364.97806624 305 346 C306.06806885 345.23719727 306.06806885 345.23719727 307.15771484 344.45898438 C315.93549485 338.14010684 324.18563027 331.48325237 332 324 C331.30132812 323.32453125 330.60265625 322.6490625 329.8828125 321.953125 C328.97273438 321.06109375 328.06265625 320.1690625 327.125 319.25 C326.22007812 318.36828125 325.31515625 317.4865625 324.3828125 316.578125 C321.09783954 313.02389196 319.95141618 311.360347 320.125 306.5 C321.101497 302.594012 321.61783503 301.16805447 325 299 C328.31765104 298.39176398 329.86533053 298.14582173 333 299 C334.90040588 300.34336853 334.90040588 300.34336853 336.79516602 302.08959961 C337.49014191 302.72541962 338.1851178 303.36123962 338.90115356 304.0163269 C339.94008255 304.99824509 339.94008255 304.99824509 341 306 C341.93801956 306.88366745 341.93801956 306.88366745 342.89498901 307.78518677 C346.91073738 311.61993953 350.85024787 315.53376148 354.79321289 319.44311523 C356.22998222 320.86319887 357.67211241 322.27787785 359.11938477 323.68725586 C361.22592727 325.73913236 363.31562988 327.80689076 365.40234375 329.87890625 C366.05017319 330.50406631 366.69800262 331.12922638 367.36546326 331.77333069 C370.90435386 335.32917973 372.97432243 337.72582761 373 343 C371.85100828 346.14460891 370.87308878 348.25625771 368.3125 350.4375 C364.44834973 351.37742844 361.63739404 351.57001193 358 350 C354.01076111 346.60467941 350.49276474 342.89725771 347 339 C343.36993441 340.27052296 341.00878088 341.65061845 338.25 344.3125 C297.97691811 381.17374272 248.29433994 400.4191407 194 402 C199.11892793 419.26753571 206.66086273 433.75547617 222.43359375 443.6875 C230.08083556 447.59841819 238.94095457 451.01745799 247.58984375 451.2109375 C248.45673828 451.23929687 249.32363281 451.26765625 250.21679688 451.296875 C252.02648813 451.34884029 253.83641597 451.39314683 255.64648438 451.4296875 C260.52212877 451.60342984 264.08556828 451.76733819 268 455 C270.0119254 458.0178881 270.25538856 458.63732924 270.30639648 462.02490234 C270.32238388 462.82938812 270.33837128 463.6338739 270.35484314 464.46273804 C270.36020584 465.32839386 270.36556854 466.19404968 270.37109375 467.0859375 C270.38012222 467.97987213 270.3891507 468.87380676 270.39845276 469.79483032 C270.41295977 471.68610279 270.42184312 473.5774255 270.42553711 475.46875 C270.43742852 478.35763446 270.48660368 481.24437925 270.53710938 484.1328125 C270.54657436 485.97134375 270.55380904 487.80988811 270.55859375 489.6484375 C270.57812607 490.51004486 270.59765839 491.37165222 270.61778259 492.2593689 C270.61170486 493.070159 270.60562714 493.8809491 270.59936523 494.71630859 C270.60443588 495.42451752 270.60950653 496.13272644 270.61473083 496.86239624 C269.64037711 500.25051681 267.6721118 501.7694284 265 504 C261.86592007 504.62641239 261.86592007 504.62641239 258.27549744 504.62818909 C257.61251209 504.63528347 256.94952675 504.64237786 256.26645094 504.64968723 C254.05195716 504.66724518 251.83922388 504.64917674 249.62475586 504.63110352 C248.03446149 504.6362432 246.44417281 504.64352486 244.85389709 504.65278625 C240.53979803 504.67130097 236.22631695 504.65836213 231.9122436 504.63869596 C227.39775163 504.62231146 222.88329886 504.63112194 218.36878967 504.63621521 C210.7886467 504.64073593 203.20875052 504.62486657 195.62866211 504.59692383 C186.86311712 504.56486041 178.09801694 504.56489216 169.33244032 504.5821386 C160.90100392 504.59799695 152.46973072 504.59127536 144.03830147 504.57420158 C140.44943464 504.56732629 136.86069843 504.56836838 133.27183342 504.57574654 C129.04702372 504.58340245 124.8227209 504.57130638 120.59799767 504.54389763 C119.04679621 504.53700579 117.49554749 504.5369244 115.94434738 504.54411316 C113.82817057 504.55279086 111.71356426 504.53688397 109.59751892 504.5146637 C108.41305648 504.51185678 107.22859404 504.50904985 106.00823879 504.50615788 C102.3909373 503.89752081 101.21340614 502.86788971 99 500 C98.49206543 497.91345215 98.49206543 497.91345215 98.48242188 495.66210938 C98.46981323 494.81442993 98.45720459 493.96675049 98.44421387 493.09338379 C98.45231079 492.18600464 98.46040771 491.27862549 98.46875 490.34375 C98.4649231 489.40446655 98.46109619 488.46518311 98.45715332 487.49743652 C98.45443424 485.51374234 98.46179516 483.5300123 98.47851562 481.54638672 C98.49992539 478.51057984 98.47871393 475.47713954 98.453125 472.44140625 C98.45576828 470.51301561 98.46089325 468.58462644 98.46875 466.65625 C98.46065308 465.74887085 98.45255615 464.8414917 98.44421387 463.90661621 C98.53778997 457.61549155 98.53778997 457.61549155 100.90820312 454.45898438 C103.89239713 452.37757175 105.59377273 451.87230694 109.18359375 451.7890625 C128.26216784 451.19960742 144.50738876 447.37799376 158.59765625 433.66015625 C166.572842 424.82909691 171.96195806 413.75126312 174 402 C173.03964844 401.97421875 172.07929688 401.9484375 171.08984375 401.921875 C138.47104863 400.7056634 105.65557895 391.57016835 77 376 C76.34870117 375.65356445 75.69740234 375.30712891 75.02636719 374.95019531 C59.38902912 366.61688936 45.251826 356.74832067 32 345 C31.10539062 344.21625 30.21078125 343.4325 29.2890625 342.625 C19.99450198 334.38858945 11.69469588 325.7518227 4 316 C3.20722656 315.02417969 2.41445312 314.04835938 1.59765625 313.04296875 C-5.44939482 304.19240698 -11.34835146 294.79153925 -17 285 C-17.40105957 284.30922363 -17.80211914 283.61844727 -18.21533203 282.90673828 C-49.58824682 228.23123886 -53.90160094 161.6953407 -37.62109375 101.57421875 C-30.13202869 75.22916128 -17.86707423 48.94977365 0 28 C-1.5255906 24.34858644 -3.72480909 22.09881888 -6.5625 19.375 C-11.92174344 14.21297672 -11.92174344 14.21297672 -12.25 9.125 C-12.21409527 6.29878469 -12.05840396 5.10846449 -10.6875 2.5625 C-7.51493284 -0.37506218 -4.12180968 -0.62215995 0 0 Z M184 430 C182.42840754 432.17072446 180.89515537 434.35619041 179.375 436.5625 C175.63879965 441.91233498 171.78190381 446.52995949 167 451 C167 451.33 167 451.66 167 452 C178.55 452 190.1 452 202 452 C197.50195856 446.75222955 197.50195856 446.75222955 192.9375 441.5625 C190.22533732 438.42210111 188.07661417 435.07888565 185.98046875 431.50390625 C185.49513672 430.75947266 185.49513672 430.75947266 185 430 C184.67 430 184.34 430 184 430 Z M117 470 C117 475.28 117 480.56 117 486 C161.55 486 206.1 486 252 486 C252 480.72 252 475.44 252 470 C207.45 470 162.9 470 117 470 Z " fill="#000000" transform="translate(93,8)"/>
</svg>
