<svg fill="#ffffff" height="200px" width="200px" version="1.1" id="Capa_1" xmlns="http://www.w3.org/2000/svg" xmlns:xlink="http://www.w3.org/1999/xlink" viewBox="0 0 56 56" xml:space="preserve"><g id="SVGRepo_bgCarrier" stroke-width="0"></g><g id="SVGRepo_tracerCarrier" stroke-linecap="round" stroke-linejoin="round"></g><g id="SVGRepo_iconCarrier"> <g> <g> <path d="M55,18.5h-9c-0.553,0-1,0.447-1,1v9h-2v-3c0-0.553-0.447-1-1-1h-4c-0.553,0-1,0.447-1,1v3h-2v-3c0-0.553-0.447-1-1-1h-1 v-10c0-0.553-0.447-1-1-1h-3v-2h7c0.553,0,1-0.447,1-1v-4c0-0.553-0.447-1-1-1h-7v-2h-2v3v4v3h-3c-0.553,0-1,0.447-1,1v10h-1 c-0.553,0-1,0.447-1,1v3h-2v-3c0-0.553-0.447-1-1-1h-4c-0.553,0-1,0.447-1,1v3h-2v-9c0-0.553-0.447-1-1-1H1c-0.553,0-1,0.447-1,1 v32c0,0.553,0.447,1,1,1h9h12h5h2h5h12h9c0.553,0,1-0.447,1-1v-32C56,18.947,55.553,18.5,55,18.5z M35,7.5v2h-6v-2H35z M25,15.5h2 h2h2v9h-1c-0.553,0-1,0.447-1,1v3h-2v-3c0-0.553-0.447-1-1-1h-1V15.5z M2,20.5h7v9v21H2V20.5z M11,30.5h3c0.553,0,1-0.447,1-1v-3 h2v3c0,0.553,0.447,1,1,1h4c0.553,0,1-0.447,1-1v-3h2v3c0,0.553,0.447,1,1,1h4c0.553,0,1-0.447,1-1v-3h2v3c0,0.553,0.447,1,1,1h4 c0.553,0,1-0.447,1-1v-3h2v3c0,0.553,0.447,1,1,1h3v20H35v-5.995c0-3.522-2.614-6.437-6-6.925V37.5h-2v0.08 c-3.386,0.488-6,3.403-6,6.925V50.5H11V30.5z M23,50.5v-5.995c0-2.417,1.721-4.439,4-4.904V50.5H23z M29,50.5V39.601 c2.279,0.465,4,2.487,4,4.904V50.5H29z M54,50.5h-7v-21v-9h7V50.5z"></path> <path d="M18,33.5h-4c-0.553,0-1,0.447-1,1v7c0,0.553,0.447,1,1,1h4c0.553,0,1-0.447,1-1v-7C19,33.947,18.553,33.5,18,33.5z M17,40.5h-2v-5h2V40.5z"></path> <path d="M38,42.5h4c0.553,0,1-0.447,1-1v-7c0-0.553-0.447-1-1-1h-4c-0.553,0-1,0.447-1,1v7C37,42.053,37.447,42.5,38,42.5z M39,35.5h2v5h-2V35.5z"></path> <path d="M49,30.5h3c0.553,0,1-0.447,1-1v-5c0-0.553-0.447-1-1-1h-3c-0.553,0-1,0.447-1,1v5C48,30.053,48.447,30.5,49,30.5z M50,25.5h1v3h-1V25.5z"></path> <path d="M7,23.5H4c-0.553,0-1,0.447-1,1v5c0,0.553,0.447,1,1,1h3c0.553,0,1-0.447,1-1v-5C8,23.947,7.553,23.5,7,23.5z M6,28.5H5 v-3h1V28.5z"></path> <path d="M49,39.5h3c0.553,0,1-0.447,1-1v-5c0-0.553-0.447-1-1-1h-3c-0.553,0-1,0.447-1,1v5C48,39.053,48.447,39.5,49,39.5z M50,34.5h1v3h-1V34.5z"></path> <path d="M7,32.5H4c-0.553,0-1,0.447-1,1v5c0,0.553,0.447,1,1,1h3c0.553,0,1-0.447,1-1v-5C8,32.947,7.553,32.5,7,32.5z M6,37.5H5 v-3h1V37.5z"></path> </g> </g> </g></svg>
